0.16m3min_grf.mot
version=1
nRows=22
nColumns 19
inDegrees=yes
endheader
time	1_ground_force_vx	1_ground_force_vy	1_ground_force_vz	1_ground_force_px	1_ground_force_py	1_ground_force_pz	1_ground_torque_x	1_ground_torque_y	1_ground_torque_z	2_ground_force_vx	2_ground_force_vy	2_ground_force_vz	2_ground_force_px	2_ground_force_py	2_ground_force_pz	2_ground_torque_x	2_ground_torque_y	2_ground_torque_z
            1.253500	           -0.045469	           -0.180864	            0.136909	           -0.233013	            0.005581	           -0.255695	            0.012882	           -0.027502	           -0.058493	           -0.325044	           -0.739786	            0.560648	           -0.232311	            0.006130	           -0.833667	           -0.056032	           -0.085412	            0.037421
            1.254000	            0.275205	           -0.180409	            0.044400	           -0.233013	            0.005581	           -0.255695	            0.091920	           -0.055073	           -0.045124	           -0.229453	           -1.291056	            0.323997	           -0.232311	            0.006130	           -0.833667	           -0.093560	           -0.104252	           -0.019181
            1.254500	           -0.045813	            1.081192	            0.096463	           -0.233013	            0.005581	           -0.255695	            0.145389	           -0.055128	           -0.077783	           -0.559294	           -0.740632	            0.560748	           -0.232311	            0.006130	           -0.833667	            0.000162	           -0.047196	           -0.019019
            1.255000	            0.321210	            0.179738	            0.137544	           -0.233013	            0.005581	           -0.255695	            0.200512	           -0.073675	           -0.005935	           -0.279647	           -0.370316	            0.280374	           -0.232311	            0.006130	           -0.833667	           -0.056101	           -0.066507	            0.037488
            1.255500	            0.045924	            0.180078	            0.046515	           -0.233013	            0.005581	           -0.255695	            0.072840	           -0.027371	           -0.073542	           -0.234667	            0.181294	            0.563894	           -0.232311	            0.006130	           -0.833667	            0.056468	           -0.037406	           -0.056709
            1.256000	            0.137658	            0.540430	            0.093689	           -0.233013	            0.005581	           -0.255695	           -0.004517	           -0.036424	           -0.107089	           -0.282805	            0.549087	            0.659084	           -0.232311	            0.006130	           -0.833667	           -0.055854	           -0.132743	            0.056102
            1.256500	            0.137888	           -0.721429	            0.088279	           -0.233013	            0.005581	           -0.255695	            0.127830	            0.009576	           -0.050781	           -0.324421	           -0.923599	            0.466135	           -0.232311	            0.006130	           -0.833667	            0.037904	           -0.094324	           -0.019203
            1.257000	           -0.229296	           -0.180113	           -0.046060	           -0.233013	            0.005581	           -0.255695	            0.077220	            0.045964	            0.027834	           -0.186427	           -0.187336	            0.703344	           -0.232311	            0.006130	           -0.833667	            0.038066	           -0.141520	           -0.038222
            1.257500	           -0.091215	            0.539796	            0.231826	           -0.233013	            0.005581	           -0.255695	            0.196359	            0.000004	           -0.004416	           -0.371188	           -0.924438	            0.653868	           -0.232311	            0.006130	           -0.833667	            0.037869	           -0.084871	           -0.019170
            1.258000	            0.321063	            0.360200	            0.092461	           -0.233013	            0.005581	           -0.255695	           -0.004287	           -0.045745	           -0.061708	           -0.463017	           -1.476217	            0.370368	           -0.232311	            0.006130	           -0.833667	           -0.074927	           -0.066239	           -0.056755
            1.258500	           -0.137415	           -0.000223	            0.046197	           -0.233013	            0.005581	           -0.255695	            0.110671	           -0.046257	           -0.006337	           -0.370544	           -1.108419	            0.606282	           -0.232311	            0.006130	           -0.833667	            0.075499	           -0.094390	            0.037331
            1.259000	            0.091752	           -0.360514	           -0.001773	           -0.233013	            0.005581	           -0.255695	            0.150425	           -0.036902	            0.003391	           -0.422046	            0.180450	            0.610902	           -0.232311	            0.006130	           -0.833667	           -0.018385	           -0.104249	            0.056188
            1.259500	            0.229410	            0.179917	            0.091916	           -0.233013	            0.005581	           -0.255695	            0.033262	            0.000599	           -0.103101	           -0.230700	           -0.923428	            0.513023	           -0.232311	            0.006130	           -0.833667	            0.018991	           -0.065832	           -0.075645
            1.260000	           -0.137367	            0.360112	            0.093599	           -0.233013	            0.005581	           -0.255695	            0.070836	            0.009358	           -0.043609	           -0.045897	           -0.186661	            0.656356	           -0.232311	            0.006130	           -0.833667	           -0.055929	           -0.122954	           -0.038115
            1.260500	           -0.045795	            0.360326	            0.047516	           -0.233013	            0.005581	           -0.255695	            0.110442	           -0.009241	           -0.002281	           -0.325668	           -0.555972	            0.655162	           -0.232311	            0.006130	           -0.833667	           -0.018325	           -0.123087	            0.037270
            1.261000	           -0.045501	           -0.000599	            0.137682	           -0.233013	            0.005581	           -0.255695	            0.144216	           -0.018314	           -0.039988	           -0.470308	            0.549247	            0.424523	           -0.232311	            0.006130	           -0.833667	            0.056748	           -0.103911	            0.037305
            1.261500	           -0.274863	            0.179819	            0.093167	           -0.233013	            0.005581	           -0.255695	            0.089630	           -0.064487	           -0.087426	           -0.515870	            0.181116	            0.329373	           -0.232311	            0.006130	           -0.833667	            0.000348	           -0.085410	            0.093947
            1.262000	            0.229524	            0.179720	            0.137772	           -0.233013	            0.005581	           -0.255695	            0.050319	           -0.036773	           -0.009313	           -0.420094	           -0.371660	            0.515074	           -0.232311	            0.006130	           -0.833667	           -0.056161	           -0.047669	            0.056406
            1.262500	            0.228792	           -0.179435	           -0.184765	           -0.233013	            0.005581	           -0.255695	            0.045322	           -0.018057	           -0.065602	           -0.092809	           -0.186328	            0.515592	           -0.232311	            0.006130	           -0.833667	            0.037717	           -0.046926	           -0.056735
            1.263000	            0.366304	            0.541458	           -0.136159	           -0.233013	            0.005581	           -0.255695	            0.155785	           -0.027617	            0.033912	           -0.190476	            0.918057	            0.566502	           -0.232311	            0.006130	           -0.833667	            0.019034	           -0.075352	           -0.056828
            1.263500	            0.183633	           -0.180623	            0.090484	           -0.233013	            0.005581	           -0.255695	            0.146136	           -0.082591	           -0.105680	           -0.421402	           -0.003531	            0.563317	           -0.232311	            0.006130	           -0.833667	            0.056773	           -0.104112	            0.093856
            1.264000	            0.137577	            0.360361	            0.047061	           -0.233013	            0.005581	           -0.255695	            0.054291	           -0.037140	            0.061952	           -0.324359	           -0.924102	            0.606920	           -0.232311	            0.006130	           -0.833667	           -0.131062	           -0.123293	           -0.019233
